<?xml version="1.0" standalone="no"?>
<!DOCTYPE svg PUBLIC "-//W3C//DTD SVG 20010904//EN"
 "http://www.w3.org/TR/2001/REC-SVG-20010904/DTD/svg10.dtd">
<svg version="1.0" xmlns="http://www.w3.org/2000/svg"
 width="32.000000pt" height="32.000000pt" viewBox="0 0 32.000000 32.000000"
 preserveAspectRatio="xMidYMid meet">

<g transform="translate(0.000000,32.000000) scale(0.100000,-0.100000)"
fill="#fff" stroke="none">
<path d="M26 299 c-25 -20 -26 -23 -26 -139 0 -116 1 -119 26 -139 23 -18 41
-21 134 -21 93 0 111 3 134 21 25 20 26 23 26 139 0 116 -1 119 -26 139 -23
18 -41 21 -134 21 -93 0 -111 -3 -134 -21z m264 -28 c13 -25 13 -197 0 -222
-10 -17 -22 -19 -130 -19 -143 0 -140 -3 -140 130 0 133 -3 130 140 130 108 0
120 -2 130 -19z"/>
<path d="M81 204 c-24 -31 -25 -37 -10 -67 16 -30 28 -37 66 -37 21 0 37 7 47
22 21 30 8 44 -18 19 -12 -12 -29 -21 -37 -21 -39 0 -54 61 -19 80 23 12 27
30 6 30 -8 0 -24 -12 -35 -26z"/>
<path d="M140 200 c-19 -19 -27 -50 -13 -50 4 0 17 12 29 27 19 25 24 26 48
15 30 -14 34 -46 9 -74 -19 -21 -14 -31 11 -22 17 6 32 48 27 74 -9 49 -75 66
-111 30z"/>
</g>
</svg>
