<?xml version="1.0" standalone="no"?>
<!DOCTYPE svg PUBLIC "-//W3C//DTD SVG 20010904//EN"
 "http://www.w3.org/TR/2001/REC-SVG-20010904/DTD/svg10.dtd">
<svg version="1.0" xmlns="http://www.w3.org/2000/svg"
 width="32.000000pt" height="32.000000pt" viewBox="0 0 32.000000 32.000000"
 preserveAspectRatio="xMidYMid meet">

<g transform="translate(0.000000,32.000000) scale(0.100000,-0.100000)"
fill="#fff" stroke="none">
<path d="M42 310 c-34 -14 -44 -55 -40 -167 4 -139 3 -138 158 -138 101 0 122
3 137 18 15 15 18 36 18 137 0 156 1 154 -143 157 -59 2 -117 -2 -130 -7z
m161 -71 c3 -11 15 -23 26 -26 31 -8 27 -37 -4 -31 -24 5 -25 3 -25 -38 0 -51
-26 -84 -64 -84 -25 0 -66 41 -66 67 0 19 45 63 65 63 22 0 19 -27 -4 -35 -27
-8 -35 -36 -16 -54 12 -12 19 -13 33 -5 13 9 18 28 20 88 2 55 6 76 16 76 8 0
16 -9 19 -21z"/>
</g>
</svg>
