<?xml version="1.0" standalone="no"?>
<!DOCTYPE svg PUBLIC "-//W3C//DTD SVG 20010904//EN"
 "http://www.w3.org/TR/2001/REC-SVG-20010904/DTD/svg10.dtd">
<svg version="1.0" xmlns="http://www.w3.org/2000/svg"
 width="32.000000pt" height="32.000000pt" viewBox="0 0 32.000000 32.000000"
 preserveAspectRatio="xMidYMid meet">

<g transform="translate(0.000000,32.000000) scale(0.100000,-0.100000)"
fill="#fff" stroke="none">
<path d="M58 314 c-47 -9 -53 -27 -53 -155 0 -154 -3 -151 149 -157 114 -4
115 -4 141 23 27 26 27 27 23 141 -6 147 -5 146 -135 150 -54 1 -110 0 -125
-2z m190 -96 c16 -16 16 -100 0 -116 -16 -16 -160 -16 -176 0 -16 16 -16 100
0 116 16 16 160 16 176 0z"/>
<path d="M140 160 c0 -33 6 -36 34 -15 20 15 20 15 0 30 -28 21 -34 18 -34
-15z"/>
</g>
</svg>
