<?xml version="1.0" standalone="no"?>
<!DOCTYPE svg PUBLIC "-//W3C//DTD SVG 20010904//EN"
 "http://www.w3.org/TR/2001/REC-SVG-20010904/DTD/svg10.dtd">
<svg version="1.0" xmlns="http://www.w3.org/2000/svg"
 width="108" height="108" viewBox="0 0 2000.000000 2000.000000"
 preserveAspectRatio="xMidYMid meet">

<g transform="translate(0.000000,2000.000000) scale(0.100000,-0.100000)"
fill="#000000" stroke="none">
<path d="M11300 17313 c-682 -39 -1369 -342 -1985 -875 -147 -128 -427 -414
-555 -568 -342 -411 -650 -910 -885 -1430 -331 -733 -665 -1888 -834 -2890
-35 -208 -68 -428 -77 -524 l-7 -68 -60 -39 c-161 -104 -393 -109 -548 -11
-51 33 -129 110 -129 127 0 7 19 18 43 25 129 38 239 115 291 204 91 156 70
384 -49 532 -24 29 -31 45 -24 55 20 31 90 221 124 339 25 83 53 154 86 211
98 172 129 261 129 369 0 146 -65 289 -162 357 -29 20 -38 32 -38 55 0 55 40
226 96 410 64 214 75 287 50 353 -68 177 -356 185 -551 14 -87 -77 -175 -218
-221 -357 -21 -62 -31 -81 -42 -77 -48 18 -110 27 -159 22 -59 -6 -167 -53
-196 -85 -16 -18 -19 -18 -84 4 -79 27 -177 31 -238 9 -21 -8 -41 -13 -42 -11
-2 1 -10 54 -17 117 -8 63 -22 130 -30 150 -62 146 -294 154 -430 15 -111
-115 -196 -476 -168 -713 16 -139 35 -205 90 -314 l48 -95 -12 -60 c-62 -309
36 -633 251 -832 l74 -68 -20 -64 c-29 -91 -23 -228 14 -319 66 -160 172 -241
348 -266 l46 -7 23 -81 c28 -98 113 -269 175 -352 188 -252 470 -421 786 -471
79 -13 139 -15 254 -10 82 3 165 8 183 12 l33 6 -7 -118 c-18 -310 -8 -864 21
-1214 106 -1266 463 -2299 1053 -3050 77 -97 348 -375 457 -467 l60 -51 -142
-286 -143 -286 -32 0 c-136 -1 -268 -94 -314 -221 -19 -53 -21 -153 -4 -205 7
-22 25 -60 41 -85 l29 -46 -80 -159 c-44 -87 -84 -159 -88 -159 -4 0 -34 13
-67 30 -52 26 -71 30 -141 30 -73 0 -88 -4 -150 -35 -51 -26 -80 -50 -117 -95
-26 -33 -51 -59 -55 -57 -4 1 -15 25 -24 52 -66 194 -237 378 -430 463 -118
53 -220 72 -378 72 -175 0 -241 -15 -387 -86 -204 -100 -354 -285 -409 -505
-13 -50 -38 -101 -93 -188 -68 -108 -75 -124 -74 -169 0 -32 7 -58 20 -76 11
-14 222 -169 469 -344 247 -175 584 -413 749 -531 255 -181 605 -428 763 -540
34 -23 53 -30 92 -30 68 0 91 19 175 146 40 60 103 137 146 180 160 156 238
355 243 623 l2 110 78 103 c106 140 121 176 121 282 0 96 -20 152 -80 226
l-35 42 491 653 c270 360 499 662 509 673 17 18 21 17 141 -23 161 -53 339
-95 519 -123 123 -18 187 -22 425 -22 372 0 543 22 962 125 111 27 207 49 214
49 6 0 41 -28 77 -61 128 -118 362 -287 508 -368 41 -23 42 -24 46 -91 17
-231 238 -387 440 -310 35 13 79 41 113 72 l55 50 97 -26 c112 -29 292 -61
406 -71 l77 -7 0 -31 c0 -52 28 -165 54 -222 28 -63 91 -134 141 -161 45 -24
45 -39 -2 -42 -333 -21 -581 -246 -644 -585 -19 -103 -14 -294 12 -420 18 -94
20 -118 10 -160 -22 -98 -5 -253 34 -314 45 -68 465 -134 855 -134 251 0 428
16 621 57 153 32 175 42 239 110 84 88 136 227 159 424 6 47 20 118 31 158 48
180 69 427 65 772 -4 344 -29 560 -91 790 -42 154 -79 234 -132 280 -87 77
-198 128 -337 155 -38 7 -108 28 -155 45 -47 18 -137 48 -199 67 -97 30 -124
34 -173 29 -115 -12 -245 -103 -324 -227 -45 -69 -37 -68 -191 -23 -250 72
-508 235 -679 429 -75 84 -174 216 -174 231 0 7 12 20 27 29 44 29 201 185
265 262 291 356 442 893 475 1693 6 149 8 163 26 168 50 13 180 85 253 140
248 188 430 483 493 802 l11 55 82 39 c171 80 278 245 278 428 0 78 -28 148
-106 263 l-65 97 40 61 c118 182 182 406 182 637 0 246 -69 463 -214 680 -64
96 -231 263 -327 327 -148 99 -336 176 -496 202 l-70 12 22 177 c86 679 245
1513 449 2367 155 647 212 1138 183 1570 -59 884 -490 1506 -1278 1843 -267
115 -577 199 -852 232 -93 11 -335 19 -428 13z m400 -174 c381 -46 798 -185
1099 -367 251 -152 482 -378 623 -610 120 -197 211 -468 255 -757 25 -169 25
-648 0 -855 -36 -292 -63 -432 -182 -945 -46 -198 -100 -436 -120 -530 -20
-93 -47 -219 -60 -280 -82 -376 -199 -1071 -250 -1475 -8 -69 -18 -141 -21
-161 l-5 -37 -84 -4 c-95 -5 -125 -22 -125 -69 0 -54 20 -62 144 -54 454 27
883 -216 1092 -618 94 -181 119 -287 118 -492 -1 -141 -4 -172 -27 -257 -27
-100 -89 -245 -127 -298 l-22 -31 -113 113 c-62 62 -146 138 -187 168 l-74 54
24 71 c107 306 -77 647 -409 760 -71 24 -101 28 -192 29 -103 1 -110 0 -128
-23 -31 -39 -22 -79 24 -108 10 -6 11 -44 1 -188 -7 -99 -15 -274 -19 -390
l-7 -210 -34 -71 c-19 -40 -37 -95 -41 -122 l-6 -51 -56 -6 c-226 -27 -448
-106 -571 -204 -126 -101 -283 -325 -315 -448 -16 -62 -9 -123 27 -227 l24
-68 -26 -52 c-21 -44 -25 -64 -25 -146 0 -87 3 -101 33 -162 22 -46 53 -85 99
-129 37 -34 69 -71 70 -83 2 -11 9 -24 16 -28 6 -4 8 -8 3 -8 -5 0 -3 -7 4
-15 11 -13 9 -20 -11 -43 -13 -15 -27 -29 -31 -32 -27 -21 -25 -211 3 -243 6
-7 18 -25 28 -42 36 -62 167 -142 209 -129 14 5 15 4 2 -5 -12 -8 -5 -11 30
-11 34 0 41 3 30 11 -12 8 -9 9 10 4 14 -4 36 -21 50 -38 14 -17 45 -52 68
-77 l44 -45 -2 35 c-1 19 -2 128 -1 241 l1 207 36 -8 c20 -5 48 -19 63 -33 14
-13 36 -32 47 -43 29 -25 35 -71 35 -230 0 -74 4 -132 8 -129 5 3 7 -23 4 -57
-3 -35 -2 -60 2 -56 7 7 18 -2 66 -58 15 -17 43 -40 97 -80 13 -9 13 -26 3
-125 -45 -411 -161 -795 -313 -1032 -95 -148 -272 -325 -427 -428 -167 -112
-470 -249 -683 -309 -729 -205 -1143 -254 -1618 -194 -493 62 -938 245 -1320
543 -114 88 -378 353 -476 476 -317 401 -551 855 -734 1430 -117 364 -201 762
-260 1225 -79 626 -79 1447 0 2225 123 1205 483 2634 907 3605 105 239 358
723 409 781 8 8 14 19 14 23 0 13 205 314 298 436 382 502 828 915 1277 1182
541 323 1166 472 1705 407z m-5096 -3238 c25 -22 18 -72 -34 -236 -49 -156
-84 -294 -100 -392 l-12 -73 -184 0 -184 0 0 38 c0 125 52 332 112 444 35 66
123 167 172 197 76 47 188 58 230 22z m-1576 -220 c7 -4 17 -39 23 -77 6 -38
17 -111 24 -161 l15 -93 -30 -47 c-84 -133 -121 -365 -86 -535 27 -127 82
-210 180 -273 134 -85 273 -88 369 -6 l42 36 82 -41 81 -40 -27 -45 c-60 -98
-101 -238 -101 -347 0 -71 20 -170 36 -176 32 -12 41 5 47 84 17 224 105 380
276 492 93 60 203 96 349 112 75 8 118 18 128 28 24 23 20 86 -5 112 -20 19
-33 21 -159 22 -150 2 -184 10 -252 64 -42 33 -90 119 -90 160 0 15 10 42 23
60 l22 33 245 -2 c135 -1 262 -6 282 -12 87 -23 158 -139 158 -259 0 -73 -22
-133 -99 -271 -43 -78 -73 -152 -116 -285 -31 -98 -74 -215 -94 -260 l-38 -81
-59 -16 c-238 -65 -458 -91 -789 -92 l-280 0 -40 28 c-22 15 -65 52 -95 81
-170 168 -237 461 -164 722 l17 62 -32 46 c-143 207 -167 478 -71 779 16 52
40 109 53 128 36 56 136 95 175 70z m878 -312 c29 -14 29 -15 26 -89 -3 -64
-7 -77 -25 -90 -49 -32 -96 -92 -117 -147 -42 -111 -8 -230 98 -344 52 -57 55
-62 36 -72 -121 -72 -295 6 -354 159 -28 72 -38 214 -20 297 24 120 114 246
203 288 47 22 105 21 153 -2z m-460 -45 l22 -6 -28 -61 c-69 -153 -79 -358
-25 -507 40 -113 41 -114 8 -140 -59 -46 -194 -3 -249 79 -70 106 -71 340 -3
486 56 119 165 178 275 149z m931 -1626 c41 -45 66 -111 71 -184 12 -183 -87
-277 -355 -335 -207 -44 -653 -35 -784 18 -51 20 -103 82 -130 152 -17 45 -20
71 -16 131 2 41 10 88 17 103 l14 28 165 -6 c279 -11 626 22 871 84 63 16 118
29 121 30 3 1 15 -9 26 -21z m-272 -724 c31 -58 150 -161 229 -199 80 -38 197
-65 281 -65 69 0 190 24 251 50 62 27 67 26 60 -12 -3 -18 -12 -125 -21 -238
-23 -291 -16 -266 -78 -280 -29 -6 -99 -14 -157 -17 -485 -26 -938 271 -1091
716 -11 30 -19 55 -19 55 0 1 87 2 193 3 105 1 217 6 247 11 84 14 84 14 105
-24z m7175 -656 c80 -39 196 -150 234 -227 35 -69 59 -182 51 -241 -3 -25 -13
-69 -22 -98 -12 -41 -20 -52 -32 -48 -9 3 -47 17 -86 30 -101 37 -178 34 -315
-10 -18 -6 -18 18 5 384 8 128 15 239 15 247 0 19 69 2 150 -37z m143 -755
c111 -53 215 -131 347 -263 129 -128 261 -292 305 -380 60 -119 -2 -282 -139
-360 -28 -17 -56 -30 -62 -30 -6 0 -50 47 -98 104 -177 212 -452 460 -668 603
-89 60 -98 69 -98 97 0 43 41 126 87 176 85 96 196 113 326 53z m-405 -458
c241 -160 501 -402 691 -641 l40 -50 -19 -85 c-75 -342 -291 -638 -564 -776
-61 -31 -77 -35 -125 -31 -83 6 -163 50 -247 134 -65 65 -76 71 -122 77 -28 3
-70 16 -94 28 -51 26 -145 120 -173 173 -17 32 -24 36 -45 31 -79 -19 -106
-17 -157 9 -117 59 -177 196 -123 284 11 17 28 32 38 32 29 0 103 52 154 109
60 66 100 149 106 216 4 47 2 54 -23 73 -15 12 -38 22 -50 22 -28 0 -75 -36
-75 -58 0 -53 -108 -208 -130 -186 -5 5 -17 39 -27 75 -22 85 -14 114 69 239
82 125 183 226 273 272 86 44 206 82 305 97 41 6 86 13 100 15 84 12 99 8 198
-59z m-607 -1488 c-10 -9 -11 -8 -5 6 3 10 9 15 12 12 3 -3 0 -11 -7 -18z m57
10 c8 -10 6 -13 -7 -13 -11 0 -17 6 -14 13 3 7 6 13 8 13 1 0 7 -6 13 -13z
m319 -559 c-3 -8 -6 -5 -6 6 -1 11 2 17 5 13 3 -3 4 -12 1 -19z m-511 -2040
c253 -338 560 -548 948 -648 115 -29 306 -60 376 -60 37 0 40 -2 40 -28 0 -15
-13 -49 -29 -74 l-29 -46 -79 -9 c-108 -11 -335 -8 -435 6 -89 13 -306 59
-320 67 -4 3 -5 23 -2 44 10 60 -2 89 -41 105 -53 23 -88 5 -119 -61 -14 -30
-26 -59 -26 -64 0 -6 -4 -10 -10 -10 -5 0 -10 -6 -10 -14 0 -24 -85 -103 -125
-116 -69 -23 -147 16 -187 93 -18 34 -22 59 -23 128 0 58 -5 92 -14 103 -7 9
-55 39 -105 68 -153 86 -285 177 -417 289 l-67 56 147 53 c135 49 425 182 437
201 11 18 23 7 90 -83z m-3431 -65 c72 -40 136 -73 144 -73 7 0 11 -6 8 -14
-3 -8 -225 -306 -494 -664 l-488 -649 -67 46 c-37 25 -68 51 -68 56 0 21 143
295 154 295 6 0 20 -7 30 -15 53 -40 136 1 136 67 0 43 -4 47 -76 96 -58 39
-107 90 -133 139 -19 37 -13 106 12 143 42 63 69 75 166 75 60 0 93 4 104 14
9 7 79 138 155 290 76 152 146 291 156 309 l17 32 57 -37 c31 -20 116 -70 187
-110z m5093 -369 l172 -57 17 -56 c22 -70 24 -281 4 -391 -30 -167 -103 -340
-173 -407 l-33 -32 -95 9 c-52 6 -144 17 -204 26 -99 15 -113 20 -147 51 -43
39 -75 114 -85 197 l-6 54 53 6 c224 27 217 25 260 70 80 82 122 213 100 310
-18 81 -38 94 -159 104 -56 5 -105 12 -108 15 -4 3 17 31 46 61 54 58 118 96
160 96 14 0 103 -25 198 -56z m455 -147 c32 -16 71 -45 87 -63 52 -59 111
-281 146 -549 26 -190 26 -706 1 -899 -19 -145 -58 -319 -77 -341 -37 -45
-334 -131 -555 -161 -179 -25 -588 -25 -765 0 -116 16 -259 42 -266 48 -1 2
-10 39 -19 83 -23 106 -24 297 -2 387 35 143 120 269 227 338 28 18 85 44 128
58 67 22 95 25 217 26 103 0 157 -4 205 -17 200 -54 342 -176 417 -360 14 -34
37 -109 52 -166 21 -84 31 -108 53 -124 48 -36 118 3 118 67 0 94 -86 332
-159 442 l-21 31 29 6 c53 11 118 140 128 257 7 81 -14 97 -170 135 l-27 7 30
52 c40 71 95 240 116 356 17 100 23 327 10 393 -7 37 -6 38 16 32 13 -4 49
-21 81 -38z m-7873 -391 c309 -66 500 -268 541 -571 19 -147 -16 -329 -97
-500 -39 -82 -43 -126 -14 -155 23 -23 77 -27 103 -7 36 27 125 247 149 371 6
33 15 65 18 69 7 8 654 -442 678 -472 11 -12 12 -39 7 -116 -13 -184 -69 -338
-163 -444 l-48 -55 -290 205 c-159 113 -476 338 -704 499 -228 161 -460 326
-515 365 -55 39 -182 129 -281 199 l-182 128 10 37 c29 108 115 239 208 316
142 118 383 173 580 131z m1064 -400 c30 -13 422 -283 470 -325 26 -23 56 -90
56 -129 0 -18 -6 -48 -14 -67 -18 -42 -126 -187 -137 -183 -24 8 -688 484
-688 493 0 6 31 48 67 95 94 119 162 151 246 116z m6516 -157 c30 -6 58 -14
63 -18 4 -4 2 -21 -3 -38 l-11 -30 -72 13 c-94 17 -194 44 -232 61 -29 13 -27
14 30 10 35 -3 75 1 95 8 36 13 39 13 130 -6z m-8102 -317 c185 -132 465 -330
622 -441 157 -111 437 -308 622 -439 185 -130 337 -240 338 -244 0 -4 -19 -36
-42 -72 -26 -42 -45 -63 -52 -57 -14 10 -406 287 -1246 881 -360 254 -659 466
-663 470 -7 6 70 140 80 140 2 0 155 -107 341 -238z m8526 -809 c-14 -58 -63
-149 -97 -182 -27 -26 -53 -37 -114 -51 -355 -83 -875 -83 -1253 -1 -51 12
-95 23 -98 26 -6 6 -16 155 -11 155 2 0 49 -9 104 -19 285 -55 723 -61 1019
-15 129 20 282 56 371 88 89 31 87 31 79 -1z"/>
<path d="M8688 13780 c-90 -48 -126 -182 -66 -247 53 -58 213 -147 324 -179
80 -23 88 -14 81 96 -15 249 -183 412 -339 330z"/>
<path d="M10724 13776 c-73 -27 -138 -73 -216 -153 -122 -123 -181 -231 -143
-259 23 -17 150 -28 243 -20 197 17 329 48 373 88 52 47 64 78 64 164 0 71 -3
85 -28 123 -54 81 -169 103 -293 57z"/>
<path d="M8500 13066 c-81 -23 -134 -58 -216 -140 -65 -66 -89 -99 -127 -176
-65 -133 -97 -263 -97 -401 0 -214 58 -367 179 -476 76 -68 214 -98 317 -68
191 54 346 240 416 499 30 110 33 340 5 430 -67 215 -191 332 -361 342 -41 2
-90 -2 -116 -10z m159 -122 c67 -19 133 -83 167 -161 14 -30 23 -57 21 -59 -2
-3 -16 5 -31 17 -30 23 -99 35 -140 25 -26 -6 -26 -7 -26 -115 0 -59 -3 -111
-6 -114 -10 -9 -41 10 -90 55 l-43 39 -16 -25 c-9 -14 -29 -58 -43 -98 -24
-66 -27 -87 -27 -213 0 -133 1 -143 28 -202 30 -64 62 -100 112 -126 l30 -16
-40 -17 c-22 -9 -65 -17 -96 -17 -207 -1 -335 310 -254 618 52 202 199 381
340 416 46 11 57 10 114 -7z"/>
<path d="M10635 13066 c-152 -43 -296 -189 -371 -376 -50 -124 -67 -207 -67
-345 -1 -198 46 -338 150 -443 77 -77 145 -106 254 -106 80 0 92 3 162 37 223
110 369 388 370 702 0 307 -153 526 -380 541 -42 2 -87 -2 -118 -10z m194
-136 c51 -25 108 -91 137 -157 30 -66 30 -72 2 -46 -36 32 -63 43 -112 43 -74
0 -74 1 -68 -110 6 -119 1 -136 -30 -119 -13 6 -42 30 -65 52 -41 40 -43 40
-57 22 -8 -11 -27 -51 -41 -88 -84 -226 -41 -476 94 -551 l45 -24 -40 -17
c-55 -24 -139 -23 -190 3 -117 60 -186 209 -186 402 0 123 23 223 78 337 107
224 286 329 433 253z"/>
<path d="M9311 12131 c-12 -8 -13 -24 -3 -102 6 -51 10 -94 9 -96 -2 -1 -21 2
-42 8 -50 14 -135 4 -185 -21 -152 -78 -184 -279 -67 -409 35 -38 103 -64 171
-63 81 0 116 14 116 46 0 28 -17 40 -70 51 -117 25 -168 135 -97 210 62 68
148 52 265 -51 28 -24 55 -44 61 -44 5 0 16 9 24 21 18 25 10 59 -26 122 -13
23 -27 60 -31 82 -11 61 -56 207 -72 233 -15 23 -30 27 -53 13z"/>
<path d="M8364 11375 c-22 -33 -11 -71 25 -93 16 -10 70 -31 120 -47 72 -24
90 -33 86 -46 -18 -55 -35 -184 -35 -259 0 -247 97 -465 260 -585 126 -93 231
-125 435 -132 174 -6 285 9 430 59 377 128 637 481 662 899 5 84 9 99 24 104
78 25 57 134 -23 122 -18 -2 -94 -20 -168 -40 -293 -77 -630 -113 -960 -103
-303 8 -509 41 -695 111 -112 42 -139 44 -161 10z m1324 -497 c35 -35 -4 -122
-74 -170 -78 -53 -144 -44 -144 21 0 29 41 98 68 116 72 46 125 58 150 33z"/>
</g>
</svg>
